<svg width="25" height="25" viewBox="0 0 25 25" fill="none" xmlns="http://www.w3.org/2000/svg">
<path d="M17.5781 20.2906C17.5781 19.7383 18.0258 19.2906 18.5781 19.2906C19.1304 19.2906 19.5781 19.7383 19.5781 20.2906C19.5781 20.8429 19.1304 21.2906 18.5781 21.2906C18.0258 21.2906 17.5781 20.8429 17.5781 20.2906Z" stroke="#232323" stroke-width="2" stroke-linecap="round" stroke-linejoin="round"/>
<path d="M7.57812 20.2906C7.57812 19.7383 8.02584 19.2906 8.57812 19.2906C9.13041 19.2906 9.57812 19.7383 9.57812 20.2906C9.57812 20.8429 9.13041 21.2906 8.57812 21.2906C8.02584 21.2906 7.57812 20.8429 7.57812 20.2906Z" stroke="#232323" stroke-width="2" stroke-linecap="round" stroke-linejoin="round"/>
<path d="M3.57812 3.29059H4.34584C4.82811 3.29059 5.24167 3.63479 5.32922 4.10904L7.57812 16.2906" stroke="#232323" stroke-width="2" stroke-linecap="round" stroke-linejoin="round"/>
<path d="M6.07812 6.29059H20.3211C20.9642 6.29059 21.4401 6.88883 21.2955 7.51545L19.4493 15.5154C19.3446 15.9692 18.9406 16.2906 18.4749 16.2906H7.57812" stroke="#232323" stroke-width="2" stroke-linecap="round" stroke-linejoin="round"/>
</svg>
