<svg width="9" height="10" viewBox="0 0 9 10" fill="none" xmlns="http://www.w3.org/2000/svg">
<path d="M1.89342 2.37493C1.32693 2.9629 0.980119 3.72796 0.91128 4.54152C0.842442 5.35508 1.05577 6.16754 1.51542 6.84233C1.97506 7.51712 2.653 8.01311 3.43527 8.24692C4.21754 8.48073 5.05646 8.43812 5.81101 8.12624C5.86211 7.79299 5.75014 7.47308 5.70437 7.36111C5.60218 7.11229 5.26538 6.68708 4.70332 6.09746C4.55314 5.93973 4.56291 5.81843 4.61667 5.45897L4.62245 5.41854C4.65888 5.17238 4.7202 5.02664 5.54886 4.89512C5.97008 4.82848 6.08072 4.99643 6.23401 5.2297L6.28555 5.30612C6.43129 5.5194 6.53926 5.56827 6.70232 5.64203C6.77564 5.67535 6.86672 5.71756 6.98891 5.78643C7.27861 5.95217 7.27861 6.13923 7.27861 6.54889V6.59555C7.27861 6.76928 7.26172 6.92212 7.23506 7.05498C7.57602 6.62706 7.81362 6.12622 7.92936 5.59146C8.0451 5.0567 8.03586 4.50244 7.90236 3.97184C7.76886 3.44123 7.5147 2.9486 7.15967 2.53228C6.80464 2.11597 6.35831 1.78721 5.85544 1.57159C5.60973 1.73733 5.27249 1.97237 5.15475 2.13366C5.09476 2.21586 5.00945 2.63663 4.73264 2.67129C4.66066 2.68018 4.56336 2.67396 4.46027 2.66729C4.1839 2.64952 3.80623 2.62508 3.68537 2.95344C3.60851 3.16138 3.59518 3.72656 3.84355 4.01981C3.88354 4.06646 3.8911 4.15311 3.86399 4.25041C3.82845 4.37793 3.75691 4.45569 3.73425 4.47169C3.6916 4.4468 3.60629 4.34772 3.54808 4.28063C3.40901 4.11845 3.23483 3.91628 3.01 3.85408C2.92825 3.83142 2.8385 3.81276 2.75097 3.79409C2.50703 3.743 2.23111 3.68479 2.16668 3.54794C2.11958 3.44752 2.12003 3.30934 2.12003 3.1636C2.12003 2.97832 2.12003 2.76904 2.02939 2.56599C1.99787 2.49352 1.95156 2.42844 1.89342 2.37493ZM4.45494 9.28281C2.00095 9.28281 0.0117188 7.29358 0.0117188 4.83958C0.0117188 2.38559 2.00095 0.396362 4.45494 0.396362C6.90893 0.396362 8.89816 2.38559 8.89816 4.83958C8.89816 7.29358 6.90893 9.28281 4.45494 9.28281Z" fill="#232323"/>
</svg>
