<svg width="24" height="25" viewBox="0 0 24 25" fill="none" xmlns="http://www.w3.org/2000/svg">
<path d="M12 22.0406C6.477 22.0406 2 17.5636 2 12.0406C2 6.51759 6.477 2.04059 12 2.04059C17.523 2.04059 22 6.51759 22 12.0406C22 17.5636 17.523 22.0406 12 22.0406ZM9.71 19.7076C8.72341 17.6149 8.15187 15.3508 8.027 13.0406H4.062C4.25659 14.5795 4.89392 16.0288 5.89657 17.2123C6.89922 18.3958 8.22401 19.2627 9.71 19.7076ZM10.03 13.0406C10.181 15.4796 10.878 17.7706 12 19.7926C13.1523 17.7171 13.8254 15.4101 13.97 13.0406H10.03ZM19.938 13.0406H15.973C15.8481 15.3508 15.2766 17.6149 14.29 19.7076C15.776 19.2627 17.1008 18.3958 18.1034 17.2123C19.1061 16.0288 19.7434 14.5795 19.938 13.0406ZM4.062 11.0406H8.027C8.15187 8.73037 8.72341 6.46627 9.71 4.37359C8.22401 4.81847 6.89922 5.68534 5.89657 6.86888C4.89392 8.05243 4.25659 9.50169 4.062 11.0406ZM10.031 11.0406H13.969C13.8248 8.67119 13.152 6.36412 12 4.28859C10.8477 6.36404 10.1746 8.67111 10.03 11.0406H10.031ZM14.29 4.37359C15.2766 6.46627 15.8481 8.73037 15.973 11.0406H19.938C19.7434 9.50169 19.1061 8.05243 18.1034 6.86888C17.1008 5.68534 15.776 4.81847 14.29 4.37359Z" fill="#232323"/>
</svg>
