<svg width="11" height="11" viewBox="0 0 11 11" fill="none" xmlns="http://www.w3.org/2000/svg">
<path d="M6.59592 10.729H6.56275C6.44106 10.7217 6.3252 10.6743 6.23321 10.5943C6.14121 10.5143 6.07824 10.4062 6.05408 10.2867L5.2026 6.10118C5.18093 5.99493 5.12849 5.89739 5.05181 5.82071C4.97513 5.74403 4.87759 5.69159 4.77133 5.66992L0.585825 4.81844C0.466104 4.79466 0.357616 4.73194 0.277278 4.64005C0.196939 4.54815 0.149266 4.43226 0.141691 4.31044C0.134117 4.18861 0.167067 4.06771 0.235404 3.96657C0.303741 3.86543 0.403623 3.78975 0.519476 3.75133L9.36599 0.804334C9.46529 0.763332 9.57438 0.752147 9.67994 0.772147C9.78549 0.792147 9.88293 0.842466 9.96035 0.916951C10.0378 0.991437 10.0918 1.08686 10.1159 1.19157C10.1399 1.29627 10.133 1.40572 10.0958 1.50653L7.14883 10.353C7.11036 10.4675 7.03549 10.5662 6.93565 10.6341C6.83581 10.702 6.71649 10.7353 6.59592 10.729Z" fill="#BE1522"/>
</svg>
