<svg width="22" height="22" viewBox="0 0 22 22" fill="none" xmlns="http://www.w3.org/2000/svg">
<path d="M1.12891 4.45126C1.12891 2.84374 2.43206 1.54059 4.03957 1.54059H5.49491C7.10243 1.54059 8.40558 2.84374 8.40558 4.45126V5.90659C8.40558 7.51411 7.10243 8.81726 5.49491 8.81726H4.03958C2.43206 8.81726 1.12891 7.51411 1.12891 5.90659V4.45126Z" stroke="#232323" stroke-width="2"/>
<path d="M12.7715 4.45126C12.7715 2.84374 14.0747 1.54059 15.6822 1.54059H17.1375C18.7451 1.54059 20.0482 2.84374 20.0482 4.45126V5.90659C20.0482 7.51411 18.7451 8.81726 17.1375 8.81726H15.6822C14.0747 8.81726 12.7715 7.51411 12.7715 5.90659V4.45126Z" stroke="#232323" stroke-width="2"/>
<path d="M1.12891 16.0939C1.12891 14.4864 2.43206 13.1833 4.03957 13.1833H5.49491C7.10243 13.1833 8.40558 14.4864 8.40558 16.0939V17.5493C8.40558 19.1568 7.10243 20.4599 5.49491 20.4599H4.03958C2.43206 20.4599 1.12891 19.1568 1.12891 17.5493V16.0939Z" stroke="#232323" stroke-width="2"/>
<path d="M12.7715 16.0939C12.7715 14.4864 14.0747 13.1833 15.6822 13.1833H17.1375C18.7451 13.1833 20.0482 14.4864 20.0482 16.0939V17.5493C20.0482 19.1568 18.7451 20.4599 17.1375 20.4599H15.6822C14.0747 20.4599 12.7715 19.1568 12.7715 17.5493V16.0939Z" stroke="#232323" stroke-width="2"/>
</svg>
