<svg width="80" height="80" viewBox="0 0 80 80" fill="none" xmlns="http://www.w3.org/2000/svg">
<g filter="url(#filter0_d_713_8524)">
<circle cx="40" cy="30" r="20" fill="white"/>
</g>
<path d="M38.5303 23.4697C38.2374 23.1768 37.7626 23.1768 37.4697 23.4697C37.1768 23.7626 37.1768 24.2374 37.4697 24.5303L38.5303 23.4697ZM43.2929 29.2929L42.7626 29.8232H42.7626L43.2929 29.2929ZM43.2929 30.7071L42.7626 30.1768H42.7626L43.2929 30.7071ZM37.4697 35.4697C37.1768 35.7626 37.1768 36.2374 37.4697 36.5303C37.7626 36.8232 38.2374 36.8232 38.5303 36.5303L37.4697 35.4697ZM37.4697 24.5303L42.7626 29.8232L43.8232 28.7626L38.5303 23.4697L37.4697 24.5303ZM42.7626 30.1768L37.4697 35.4697L38.5303 36.5303L43.8232 31.2374L42.7626 30.1768ZM42.7626 29.8232C42.8602 29.9209 42.8602 30.0791 42.7626 30.1768L43.8232 31.2374C44.5066 30.554 44.5066 29.446 43.8232 28.7626L42.7626 29.8232Z" fill="#BE1522"/>
<defs>
<filter id="filter0_d_713_8524" x="0" y="0" width="80" height="80" filterUnits="userSpaceOnUse" color-interpolation-filters="sRGB">
<feFlood flood-opacity="0" result="BackgroundImageFix"/>
<feColorMatrix in="SourceAlpha" type="matrix" values="0 0 0 0 0 0 0 0 0 0 0 0 0 0 0 0 0 0 127 0" result="hardAlpha"/>
<feOffset dy="10"/>
<feGaussianBlur stdDeviation="10"/>
<feComposite in2="hardAlpha" operator="out"/>
<feColorMatrix type="matrix" values="0 0 0 0 0.225958 0 0 0 0 0.231532 0 0 0 0 0.241667 0 0 0 0.12 0"/>
<feBlend mode="normal" in2="BackgroundImageFix" result="effect1_dropShadow_713_8524"/>
<feBlend mode="normal" in="SourceGraphic" in2="effect1_dropShadow_713_8524" result="shape"/>
</filter>
</defs>
</svg>
