<svg width="82" height="81" viewBox="0 0 82 81" fill="none" xmlns="http://www.w3.org/2000/svg">
<g filter="url(#filter0_d_706_6845)">
<ellipse rx="20.6736" ry="20" transform="matrix(-1 0 0 1 40.9026 30.8572)" fill="white"/>
</g>
<path d="M42.7431 24.3269C43.036 24.034 43.5109 24.034 43.8038 24.3269C44.0967 24.6198 44.0967 25.0947 43.8038 25.3876L42.7431 24.3269ZM37.9805 30.1501L38.5109 30.6805H38.5109L37.9805 30.1501ZM37.9805 31.5643L38.5109 31.034H38.5109L37.9805 31.5643ZM43.8038 36.3269C44.0967 36.6198 44.0967 37.0947 43.8038 37.3876C43.5109 37.6805 43.036 37.6805 42.7431 37.3876L43.8038 36.3269ZM43.8038 25.3876L38.5109 30.6805L37.4502 29.6198L42.7431 24.3269L43.8038 25.3876ZM38.5109 31.034L43.8038 36.3269L42.7431 37.3876L37.4502 32.0947L38.5109 31.034ZM38.5109 30.6805C38.4132 30.7781 38.4132 30.9364 38.5109 31.034L37.4502 32.0947C36.7668 31.4113 36.7668 30.3032 37.4502 29.6198L38.5109 30.6805Z" fill="#BE1522"/>
<defs>
<filter id="filter0_d_706_6845" x="0.228516" y="0.857239" width="81.3477" height="80" filterUnits="userSpaceOnUse" color-interpolation-filters="sRGB">
<feFlood flood-opacity="0" result="BackgroundImageFix"/>
<feColorMatrix in="SourceAlpha" type="matrix" values="0 0 0 0 0 0 0 0 0 0 0 0 0 0 0 0 0 0 127 0" result="hardAlpha"/>
<feOffset dy="10"/>
<feGaussianBlur stdDeviation="10"/>
<feComposite in2="hardAlpha" operator="out"/>
<feColorMatrix type="matrix" values="0 0 0 0 0.225958 0 0 0 0 0.231532 0 0 0 0 0.241667 0 0 0 0.12 0"/>
<feBlend mode="normal" in2="BackgroundImageFix" result="effect1_dropShadow_706_6845"/>
<feBlend mode="normal" in="SourceGraphic" in2="effect1_dropShadow_706_6845" result="shape"/>
</filter>
</defs>
</svg>
