<svg width="16" height="16" viewBox="0 0 16 16" fill="none" xmlns="http://www.w3.org/2000/svg">
<path d="M6.33398 4.17798V5.42798H3.20898V12.303H10.084V9.17798H11.334V12.928C11.334 13.0937 11.2681 13.2527 11.1509 13.3699C11.0337 13.4871 10.8747 13.553 10.709 13.553H2.58398C2.41822 13.553 2.25925 13.4871 2.14204 13.3699C2.02483 13.2527 1.95898 13.0937 1.95898 12.928V4.80298C1.95898 4.63722 2.02483 4.47825 2.14204 4.36104C2.25925 4.24383 2.41822 4.17798 2.58398 4.17798H6.33398ZM13.209 2.30298V7.30298H11.959V4.4361L7.08836 9.30735L6.20461 8.4236L11.0746 3.55298H8.20898V2.30298H13.209Z" fill="white"/>
</svg>
